<?xml version="1.0" standalone="no"?>
<!DOCTYPE svg PUBLIC "-//W3C//DTD SVG 20010904//EN"
 "http://www.w3.org/TR/2001/REC-SVG-20010904/DTD/svg10.dtd">
<svg version="1.0" xmlns="http://www.w3.org/2000/svg"
 width="512.000000pt" height="512.000000pt" viewBox="0 0 512.000000 512.000000"
 preserveAspectRatio="xMidYMid meet">
<metadata>
Created by potrace 1.11, written by Peter Selinger 2001-2013
</metadata>
<g transform="translate(0.000000,512.000000) scale(0.100000,-0.100000)"
fill="#000000" stroke="none">
<path d="M2405 5110 c-906 -55 -1724 -596 -2129 -1410 -185 -371 -267 -724
-267 -1140 0 -405 83 -766 260 -1125 383 -776 1109 -1294 1976 -1410 160 -22
471 -22 630 0 477 64 914 249 1281 542 453 362 776 881 899 1448 41 190 56
336 56 545 0 416 -82 769 -267 1140 -250 502 -651 900 -1159 1151 -397 195
-840 285 -1280 259z m1000 -2540 l563 -1545 -221 -3 c-121 -1 -224 1 -227 5
-4 5 -74 198 -156 430 l-149 423 -666 0 -666 0 -118 -332 c-64 -183 -133 -377
-152 -430 l-35 -98 -215 0 c-201 0 -215 1 -208 18 3 9 254 697 557 1527 303
831 554 1520 559 1533 l9 22 281 -2 281 -3 563 -1545z"/>
<path d="M2277 2988 c-147 -408 -265 -743 -263 -745 1 -2 243 -2 537 -1 l535
3 -265 742 c-146 409 -269 743 -272 743 -3 0 -126 -334 -272 -742z"/>
</g>
</svg>
